<svg width="407" height="444" viewBox="0 0 407 444" fill="none" xmlns="http://www.w3.org/2000/svg">
<path d="M224.07 149.653C225.284 149.837 227.832 151.156 228.311 152.324C228.639 153.123 229.078 158.161 229.142 159.481C229.342 163.343 229.981 169.341 226.442 171.732C225.635 172.276 224.062 172.476 223.902 172.652C222.528 174.195 224.653 188.421 224.861 191.46C225.587 202.2 223.798 212.084 231.235 220.753C239.886 230.844 246.285 232.388 250.351 246.87C257.189 271.197 254.089 311.437 253.067 337.362C252.308 356.539 250.878 375.715 249.464 394.859C249.664 396.019 254.265 395.707 255.471 395.659C262.333 395.371 269.347 394.252 276.201 394.044C278.214 393.98 281.186 393.78 283.079 394.076C288.343 394.891 291.283 401.777 283.638 402.552C275.993 403.328 267.022 402.393 259.21 402.576C255.999 402.656 250.854 402.041 248.026 402.576C246.445 402.872 245.095 405.839 242.786 406.911C235.006 410.533 209.97 410.357 200.648 410.037C191.997 409.742 182.116 409.022 173.816 406.551C171.651 405.903 168.12 403.776 166.658 403.6C154.74 402.153 140.209 404.664 128.922 403.04C125.687 402.576 124.337 400.105 125.743 397.203L163.902 395.563L164.701 394.764C164.406 385.207 164.533 375.603 164.246 366.055C163.375 337.37 162.353 308.55 162.097 279.857C161.985 267.494 161.698 257.034 165.82 245.207C170.549 231.652 177.642 229.165 187.388 220.481C193.77 214.795 194.282 209.797 195.08 201.56C195.991 192.204 195.512 182.68 197.149 173.387C196.91 172.468 191.957 172.1 191.054 169.389C190.503 167.726 190.551 154.723 190.951 152.691C191.294 150.932 192.764 150.7 194.417 150.324C197.653 149.597 201.319 149.677 204.626 149.629C206.903 139.329 202.861 126.182 195.368 118.753C193.77 117.17 188.474 112.427 186.621 114.842C184.56 117.537 182.795 122.839 180.398 126.182C176.604 131.476 173.065 133.683 167.345 136.538C163.854 138.281 154.117 143.207 150.946 144.079C146.312 145.358 146.312 142.304 148.03 139.033C149.923 135.442 154.476 129.661 157.096 126.286C160.531 121.864 164.446 117.817 167.944 113.459C162.105 111.716 155.643 109.772 150.922 105.734C146.2 101.696 144.89 95.874 141.583 91.1239C140.377 89.3886 135.36 84.8224 135.48 83.3989C135.808 81.7276 136.934 81.5117 138.42 81.4557C146.943 81.1358 165.061 90.1243 171.675 95.6101C174.926 98.305 177.962 102.751 181.285 105.158C183.482 106.75 185.686 107.022 187.795 108.221C194.945 112.299 200.089 118.089 204.906 124.623C205.681 124.119 205.641 123.599 205.729 122.799C207.191 109.509 203.125 93.5469 200.912 80.4481C199.881 80.8959 199.65 82.5033 198.787 83.375C194.489 87.7172 188.251 81.5117 186.972 77.1054C186.237 74.5704 187.244 72.2114 185.75 70.3321C184.472 70.0602 175.07 82.8792 169.255 77.8012C163.751 72.9951 170.708 66.7655 173.776 63.143C172.697 61.7275 170.796 62.5992 169.31 62.3033C163.599 61.1678 159.477 55.498 161.985 49.7323C164.901 43.0389 174.575 43.9666 180.166 46.3656C179.671 42.5591 178.465 33.1149 181.476 30.38C186.285 26.0057 191.374 32.2672 192.78 36.6735C193.219 38.0409 193.994 45.31 194.785 45.302C199.146 41.6955 204.523 36.8094 210.202 41.0557C216.824 46.0058 210.258 52.1473 207.286 57.0174C218.23 58.3929 222.137 71.9315 209.092 74.0027C207.774 74.2106 204.538 73.3789 204.618 74.8583C204.722 76.9295 206.2 80.1282 206.615 82.4553C208.421 92.5553 208.604 103.039 210.018 113.123C210.114 113.787 210.713 119.521 212.071 118.249C215.363 109.956 219.093 101.68 223.87 94.1147C226.131 90.5401 230.221 84.5265 232.833 81.2558C234.558 79.0967 237.961 77.0255 238.544 74.1946C239.759 68.3329 234.598 62.8071 232.561 57.5372C229.31 49.1085 230.604 39.3044 233.64 30.9477C234.414 28.8126 235.109 25.31 237.626 25.8058C242.554 26.7734 247.18 40.5279 247.643 45.1021C248.546 54.0586 245.087 60.7999 243.457 69.2606C255.615 61.5996 262.046 47.1973 273.804 39.2165C277.191 36.9134 285.323 32.891 288.934 35.7138C292.792 38.7287 289.102 43.5907 286.801 46.3736C281.249 53.115 271.152 59.7123 263.156 63.167C260.464 64.3265 257.844 64.3345 255.288 65.9419C252.156 67.9091 247.579 73.9387 245.055 77.0015C234.918 89.3086 212.575 118.609 212.583 134.483C212.583 135.282 212.231 136.042 213.389 135.818C216.832 133.003 218.406 128.789 220.89 125.222C222.168 123.383 226.003 120.344 225.795 118.121C225.5 114.898 223.215 114.914 225.452 110.62C228.256 105.246 233.743 105.134 239.191 105.47C239.08 101.832 237.234 98.7689 237.266 95.0023C237.322 89.1087 243.05 80.1122 249.672 83.5269C253.482 85.4941 251.917 92.2274 253.506 95.6581C258.763 95.858 262.908 93.259 268.085 96.5058C275.889 101.408 268.101 110.444 262.054 112.395C264.282 114.962 266.966 115.57 268.644 118.833C272.255 125.822 265.529 132.084 258.787 128.173C257.421 127.382 252.931 122.567 251.461 123.607C249.816 128.461 244.296 136.738 238.512 136.234C230.668 135.554 234.454 124.263 236.531 119.848C233.919 119.593 230.932 120.56 229.078 122.391C225.524 125.902 216.848 139.569 215.514 144.335C215.027 146.086 214.532 147.805 214.715 149.661C217.615 149.965 221.234 149.245 224.022 149.661L224.07 149.653ZM239.751 61.2637C243.034 53.8747 245.127 45.1901 242.147 37.3132C241.788 36.3696 240.198 32.763 238.976 33.0429C235.117 40.36 233.823 53.3389 238.576 60.576C238.904 61.0798 238.512 61.5356 239.759 61.2637H239.751ZM187.635 49.0206C188.602 48.2689 190.591 34.5303 186.373 34.1385C183.306 34.6743 182.427 48.3328 187.635 49.0206ZM283.909 41.0397C279.276 41.3756 274.579 44.7103 271.136 47.6851C268.86 49.6523 265.824 52.5712 264.762 55.41C265.752 56.3617 283.143 43.7826 283.909 41.0397ZM207.27 43.7347C204.73 41.9194 195.735 51.3397 194.913 54.4504C193.259 60.68 202.254 52.8511 203.612 51.4356C204.634 50.364 209.196 45.1101 207.27 43.7427V43.7347ZM181.788 57.0014C180.989 54.5144 178.776 50.7159 176.076 50.2121C172.665 49.5724 166.89 49.6523 166.467 54.2105C165.891 60.4081 178.377 57.0414 181.788 57.0014ZM202.917 60.8559C201.775 61.1038 200.816 62.1994 199.562 62.3273C197.733 62.5112 192.788 60.0802 191.598 61.7675C191.07 62.5112 191.094 73.107 191.422 74.7944C191.797 76.7856 192.804 81.1598 195.384 79.4085C199.226 76.8096 195.28 69.9163 198.819 67.4053C202.358 64.8943 208.908 71.0518 211.464 66.7495C214.252 62.0474 206.512 60.0802 202.909 60.8559H202.917ZM173.816 73.5069C175.23 74.9463 185.535 65.2381 186.605 63.6788C187.931 61.7515 185.111 60.576 183.09 61.7755C181.724 62.5752 172.889 72.5712 173.816 73.5149V73.5069ZM145.098 87.3574C147.75 92.7712 150.187 98.449 154.197 103.007C156.513 105.102 159.038 106.07 162.001 106.902C166.067 108.037 172.657 110.012 175.933 106.79C168.392 97.3454 157.288 89.0687 145.098 87.3574ZM244.536 105.454C244.799 103.447 247.355 102.479 248.202 100.864C249.999 97.4014 246.876 92.0035 246.141 88.421C243.753 91.0679 241.899 94.3306 241.676 97.9292C241.524 100.4 241.42 105.198 244.544 105.454H244.536ZM253.059 108.653C255.064 108.765 257.093 108.485 259.018 107.965C266.823 105.87 269.323 96.1299 259.058 100.016C255.336 101.424 253.091 104.631 253.059 108.653ZM230.804 115.506C235.054 116.186 238.297 116.922 240.853 112.675C242.139 110.54 239.671 109.501 237.762 109.285C234.926 108.965 228.831 112.092 230.804 115.506ZM259.09 122.32C260.065 123.279 262.373 124.591 263.699 123.847C267.925 119.976 262.445 116.258 258.747 114.946C255.376 113.747 248.09 112.963 245.39 115.618C244.016 116.97 238.153 125.934 237.762 127.677C237.514 128.773 237.65 129.909 237.642 131.02C244.024 131.54 246.077 117.146 249.185 116.226C255.36 114.395 256.35 119.641 259.09 122.328V122.32ZM157.328 135.802C163.255 133.507 170.868 130.532 174.782 125.334C176.867 122.567 183.25 111.14 174.726 115.698C171.292 117.537 159.221 130.324 157.743 133.835C157.464 134.499 157.184 135.042 157.328 135.81V135.802ZM198.116 155.083C195.743 155.786 196.071 163.679 198.643 164.455C201.032 164.119 203.907 165.087 206.008 165.111C210.026 165.151 216.042 164.535 219.9 163.687C220.483 163.559 221.162 164.047 222.057 163.655C224.733 162.472 223.71 156.578 222.392 156.122L198.116 155.083ZM215.826 170.948C213.142 172.476 207.151 169.965 205.593 173.211C204.562 175.37 203.907 183.743 203.604 186.654C202.629 195.962 203.516 206.998 200.137 215.659C196.758 224.319 188.035 228.517 181.516 234.819C173.84 242.248 170.557 252.86 169.566 263.32C171.204 305.895 167.697 350.389 172.809 392.636C173.48 398.21 176.803 399.05 181.684 400.257C194.481 403.416 213.957 402.936 227.289 402.033C231.019 401.785 238.449 400.609 240.158 396.811C241.947 392.852 243.042 381.953 243.481 377.242C245.246 358.594 246.628 337.41 247.228 318.698C247.883 298.426 249.712 257.25 239.319 240.321C234.934 233.18 226.011 228.174 221.937 220.984C217.176 212.588 218.158 203.839 217.423 194.627C216.792 186.742 215.698 178.849 215.826 170.932V170.948Z" fill="#8400FF"/>
<path d="M236.955 246.702C238.576 248.334 240.621 262.008 240.821 264.927C242.187 285.463 240.701 307.646 239.743 328.262C239.207 339.737 239.375 352.572 237.57 363.888C237.075 367.007 236.467 370.845 233.12 372.204C232.274 372.005 231.738 369.094 231.738 368.214C231.762 359.37 233.432 349.038 233.903 339.993C235.038 318.114 237.146 292.956 236.028 271.316C235.701 264.895 232.721 252.772 233.344 247.334C233.624 244.847 235.605 245.359 236.955 246.702Z" fill="#8400FF"/>
<path d="M234.846 387.518C233.879 388.486 230.628 388.582 229.917 387.119C229.486 386.239 229.462 382.065 229.669 381.009C230.181 378.394 234.806 378.162 235.437 380.001C235.804 381.073 235.653 386.719 234.854 387.526L234.846 387.518Z" fill="#8400FF"/>
</svg>
