<svg width="376" height="410" viewBox="0 0 376 410" fill="none" xmlns="http://www.w3.org/2000/svg">
<path d="M247.828 316.321C248.876 316.468 249.739 316.978 249.968 318.071C249.385 322.317 244.824 322.834 241.312 323.07C232.692 323.661 223.15 323.572 214.457 323.816C194.996 324.37 175.55 324.377 156.193 324.03C153.322 323.978 141.042 324.17 139.906 321.468C138.865 318.972 140.482 318.381 140.762 316.875C142.422 307.932 140.327 293.924 140.408 284.42C140.644 255.569 151.057 237.004 171.167 217.421C179.307 209.49 187.926 204.402 184.989 190.925C182.236 178.305 172.569 173.173 164.643 164.637C142.208 140.467 140.526 117.502 143.397 85.5121C143.714 82.0192 144.666 78.5855 144.902 75.0778C140.245 74.1917 140.349 70.5512 144.629 68.8306C149.596 66.8294 159.167 67.5014 164.827 67.3906C182.362 67.0509 199.874 67.1322 217.445 67.0509C224.965 67.014 243.193 65.2639 249.451 68.9561C252.854 70.9647 250.374 72.2201 249.606 74.2286C248.322 77.6107 249.879 96.1679 249.702 101.573C249.112 119.481 244.618 141.272 233.806 155.827C220.22 174.111 191.705 187.196 215.556 212.591C221.999 219.451 227.77 223.498 233.356 231.724C245.326 249.336 248.536 265.508 249.326 286.65C249.695 296.545 249.119 306.529 247.821 316.321H247.828ZM241.481 315.966C242.315 306.248 243.024 296.434 242.618 286.657C241.858 268.307 237.341 251.685 226.493 236.731C217.622 224.51 201.498 214.26 198.693 198.494C195.542 180.816 216.966 166.424 226.124 153.745C240.692 133.555 243.038 109.379 242.212 85.1576C242.101 81.8568 242.396 78.519 242.05 75.2329L151.595 75.2551C149.876 90.9175 148.23 107.894 151.337 123.461C153.219 132.898 158.466 142.971 163.743 150.975C174.215 166.874 191.004 171.083 192.944 193.037C194.457 210.191 170.51 224.185 161.359 237.47C147.847 257.09 145.411 274.997 148.252 298.591L147.861 315.59C153.632 315.76 159.455 315.361 165.219 315.575C172.141 315.826 179.122 316.904 186.074 317.104C201.682 317.539 217.866 315.981 233.445 315.575C236.079 315.508 238.928 315.405 241.474 315.966H241.481Z" fill="#8400FF"/>
<path d="M199.749 277.936C199.313 286.325 198.826 294.95 199.874 303.302C200.324 303.967 203.948 303.56 205.077 303.693C206.7 303.878 215.276 306.3 213.815 308.818C208.044 312.606 201.38 310.997 195.04 311.093C190.834 311.152 184.377 312.688 180.473 310.782C176.886 309.032 180.805 306.47 182.679 305.466C185.867 303.76 189.048 303.08 192.576 302.49L193.004 278.837C192.76 277.589 188.974 277.301 187.579 276.807C181.875 274.776 173.506 265.782 171.455 260.103C168.709 252.504 170.724 242.639 173.211 235.158C173.521 234.22 174.244 233.046 175.196 232.662C176.606 232.094 180.989 231.791 182.753 231.636C189.424 231.06 207.992 229.494 213.6 231.363C216.678 232.389 216.774 234.649 217.512 237.529C220.161 247.896 221.615 258.973 214.944 267.96C211.18 273.033 206.235 277.168 199.756 277.951L199.749 277.936ZM177.403 239.153C175.572 248.111 175.108 256.891 181.617 264.091C189.579 272.908 200.354 275.271 209.032 265.759C216.22 257.888 212.206 246.287 210.553 237.004L198.413 236.849L177.41 239.153H177.403Z" fill="#8400FF"/>
<path d="M199.749 129.516C199.313 137.905 198.826 146.53 199.874 154.882C200.324 155.546 203.948 155.14 205.077 155.273C206.7 155.458 215.276 157.88 213.815 160.398C208.044 164.186 201.38 162.576 195.04 162.672C190.834 162.731 184.377 164.267 180.473 162.362C176.886 160.612 180.805 158.05 182.679 157.045C185.867 155.339 189.048 154.66 192.576 154.069L193.004 130.417C192.76 129.169 188.974 128.881 187.579 128.386C181.875 126.355 173.506 117.361 171.455 111.682C168.709 104.084 170.724 94.2182 173.211 86.7378C173.521 85.8 174.244 84.6258 175.196 84.2418C176.606 83.6732 180.989 83.3705 182.753 83.2154C189.424 82.6394 207.992 81.0739 213.6 82.9422C216.678 83.9686 216.774 86.2283 217.512 89.1082C220.161 99.476 221.615 110.553 214.944 119.54C211.18 124.613 206.235 128.748 199.756 129.531L199.749 129.516ZM177.403 90.7402C175.572 99.6975 175.108 108.478 181.617 115.677C189.579 124.495 200.354 126.858 209.032 117.346C216.22 109.475 212.206 97.8735 210.553 88.5913L198.413 88.4362L177.41 90.7402H177.403Z" fill="#8400FF"/>
</svg>
