<svg width="216" height="247" viewBox="0 0 216 247" fill="none" xmlns="http://www.w3.org/2000/svg">
<path d="M157.395 2.21911C164.841 8.04556 168.116 18.5098 172.414 26.509C176.098 33.3682 182.355 41.8448 184.139 49.4445C187.618 64.3127 180.201 88.4564 174.987 102.789C174.236 104.845 173.077 107.241 171.751 108.976C170.192 111.002 163.535 116.4 163.476 118.027C163.428 119.411 164.022 122.032 164.305 123.532C166.079 132.973 169.198 142.239 170.474 151.787L180.474 193.157C185.669 192.017 190.415 191.004 195.844 191.16C204.635 191.413 217.49 194.999 215.473 206.203C212.149 224.637 168.876 237.547 156.225 223.839C146.469 213.267 162.473 201.848 170.513 197.21C172.258 196.207 175.728 195.866 175.815 193.352C175.864 192.037 175.26 188.782 174.919 187.389C170.659 169.783 166.644 151.904 162.619 134.162C161.42 128.881 160.777 123.454 159.169 118.31C156.527 116.829 153.847 116.361 151.186 114.714C141.791 108.907 119.345 89.2067 114.336 79.8142C108.819 69.4669 108.926 51.5783 108.8 39.7403C108.732 33.7287 108.488 25.3301 109.102 19.5231C109.248 18.1103 110.798 12.9756 111.626 11.9818C112.26 11.2219 113.897 10.3157 114.823 9.83832C123.907 5.22003 134.423 3.81699 144.218 1.96577C150.075 0.855044 152.054 -1.97048 157.405 2.21911H157.395ZM115.788 14.0182C113.975 16.4345 120.544 16.2883 121.996 16.1227C127.493 15.5186 147.619 10.0429 151.206 6.37948C151.596 5.98001 152.58 4.98619 152.346 4.36263C151.771 2.85243 148.613 5.06412 147.551 5.31744C144.189 6.12613 140.339 6.16511 136.937 6.9056C133.536 7.64608 117.523 11.6993 115.788 14.0182ZM168.213 107.008C171.546 102.662 177.94 80.9444 179.178 74.8062C183.846 51.5004 179.421 47.3887 168.895 27.951C166.4 23.3424 164.198 18.0129 161.498 13.57C160.689 12.2449 158.477 8.87374 157.531 7.86044C156.03 6.24307 152.746 10.4034 150.923 11.4947C144.793 15.1679 125.719 20.9651 118.858 20.3902C117.825 20.3025 115.028 19.1431 114.414 19.3574C112.591 19.9907 113.351 28.3115 113.303 30.3965C112.981 45.7713 111.597 69.4863 120.515 82.5033C124.979 89.0215 145.134 106.209 152.171 110.574C155.153 112.425 158.272 114.081 161.839 112.746C163.077 112.279 167.317 108.186 168.213 107.017V107.008ZM159.627 222.26C170.825 232.276 207.578 221.062 211.613 206.632C212.578 203.202 211.545 200.348 208.738 198.058C203.729 193.966 189.918 194.482 183.992 196.1C179.392 197.356 182.043 200.981 182.638 204.06C183.086 206.369 184.09 210.13 180.503 209.847C179.071 209.74 178.115 200.689 177.238 199.286C175.055 197.045 162.833 206.457 160.942 208.551C157.541 212.303 155.124 218.217 159.627 222.25V222.26Z" fill="#8400FF"/>
<path d="M146.908 100.791C139.062 95.6662 131.06 88.6803 124.784 81.6944C121.509 78.0505 119.452 74.2798 122.669 69.5836C124.413 67.0309 131.265 63.8448 134.276 63.0069C137.503 62.1105 141.021 62.1592 144.198 61.3213C150.533 59.6552 157.541 56.2354 164.012 54.6472C167.122 53.8872 176.186 52.0458 177.589 56.0795C177.94 57.083 178.33 59.9962 178.33 61.107C178.33 62.8218 176.468 70.704 175.913 72.8183C174.188 79.395 167.16 100.382 162.658 104.347C157.707 108.712 151.255 103.617 146.888 100.772L146.908 100.791Z" fill="#8400FF"/>
<path d="M105.583 123.687C98.5466 131.53 83.6641 132.378 73.986 130.751C70.6625 130.195 66.8907 129.046 63.5964 128.179C62.115 128.091 61.3841 129.435 61.0624 130.673L47.0473 205.296C47.174 206.017 47.3201 206.641 47.9439 207.108C49.4643 208.258 55.0392 209.213 57.2809 210.09C65.6822 213.364 77.3095 220.252 80.7402 229.002C83.976 237.244 76.5005 243.392 69.1226 245.263C52.817 249.404 30.9074 244.951 16.2782 236.981C8.5884 232.792 -3.1559 224.091 0.966778 214.065C4.64113 205.121 19.7089 203.923 28.0127 204.166C32.6422 204.302 37.4569 205.706 41.9792 205.52C44.2013 204.341 44.7179 195.037 45.2442 192.377C48.5579 175.599 51.7449 158.763 54.8248 141.995C55.4193 138.779 58.5478 129.786 56.8228 127.224C56.3354 126.503 43.753 122.713 41.5991 121.875C36.8916 120.043 27.1161 116.048 23.9583 112.463C13.9878 101.141 25.9855 78.3615 30.3616 66.465C33.7046 57.3551 42.5152 27.95 49.591 23.1856C57.4563 17.895 77.4557 22.2405 86.4222 24.6471C94.9502 26.9367 106.344 29.5771 110.496 38.1999C113.351 44.1238 111.607 52.2399 111.841 58.6899C112.026 63.7466 113.147 69.7095 113.39 74.7857C113.917 85.6884 112.864 115.581 105.583 123.697V123.687ZM50.3513 27.5701C48.0122 30.5223 49.8152 34.2247 52.2128 36.4754C58.8987 42.7597 82.0657 46.014 90.9738 44.9032C94.1608 44.5038 97.4648 42.9059 100.603 42.1751C102.474 41.7367 104.999 42.5551 106.197 40.5383C105.174 34.3026 98.0593 32.1299 92.7671 30.4345C82.1631 27.0342 64.3762 22.6107 53.6358 25.5045C52.8366 25.7188 50.8385 26.966 50.361 27.5701H50.3513ZM46.2481 36.1831C45.5366 36.3974 44.6984 37.6835 44.3378 38.3558C40.2151 46.1504 36.6772 59.8786 33.3147 68.7254C28.7632 80.6804 22.4086 90.638 24.202 104.327C25.1961 111.898 36.6479 116.214 43.1097 118.679C50.3707 121.446 59.1229 123.804 66.7445 125.402C79.093 127.984 100.106 131.053 105.408 115.902C112.552 95.5096 108.332 72.6909 108.088 51.665C108.059 49.4144 109.579 46.5693 107.055 44.952C101.373 45.3612 95.7787 48.5082 90.0868 48.9662C80.9351 49.7067 58.9962 46.355 51.6475 40.7234C50.2245 39.6322 47.5053 35.8128 46.2578 36.1831H46.2481ZM40.1177 225.981C38.2171 224.783 41.9792 213.568 41.677 211.055C41.4919 209.457 40.6342 208.882 39.1527 208.482C31.4921 206.426 13.1887 207.138 6.7951 212.175C-3.46774 220.252 13.6954 231.554 20.2644 234.818C32.7981 241.054 62.5828 247.845 74.3369 238.862C84.1124 231.389 71.0426 221.265 64.4541 217.602C62.0273 216.248 51.014 211.074 48.8503 210.704C48.0998 210.577 47.2519 210.47 46.5209 210.743C44.1331 211.62 44.484 224.374 42.0961 225.738C41.6381 226.001 40.5173 226.244 40.1177 226.001V225.981Z" fill="#8400FF"/>
<path d="M36.4726 82.2586C40.3224 79.0726 47.0376 78.7998 51.9789 79.5208C61.3256 80.8848 76.4324 84.4216 85.5257 87.1887C90.4573 88.6891 102.396 92.7716 103.439 98.4129C104.482 104.054 101.11 115.415 96.4707 118.796C91.8315 122.177 79.1126 120.871 73.1576 120.15C63.1677 118.942 49.4644 117.061 40.7025 112.375C36.8722 110.329 32.0478 106.685 31.2583 102.057C30.2837 96.2986 31.8236 86.0975 36.4726 82.2489V82.2586Z" fill="#8400FF"/>
</svg>
