<svg width="436" height="474" viewBox="0 0 436 474" fill="none" xmlns="http://www.w3.org/2000/svg">
<path d="M199.405 162.709C204.325 166.551 206.499 173.458 209.34 178.742C211.779 183.275 215.921 188.867 217.093 193.879C219.395 203.688 214.491 219.627 211.043 229.086C210.547 230.443 209.776 232.023 208.904 233.167C207.877 234.498 203.47 238.067 203.435 239.143C203.401 240.056 203.795 241.789 203.983 242.779C205.155 249.012 207.218 255.133 208.065 261.425L214.68 288.726C218.111 287.975 221.252 287.301 224.846 287.412C230.656 287.582 239.163 289.947 237.828 297.34C235.628 309.506 207.012 318.026 198.643 308.977C192.191 302.002 202.776 294.463 208.091 291.399C209.237 290.733 211.539 290.511 211.599 288.846C211.625 287.975 211.231 285.832 211.009 284.91C208.193 273.291 205.532 261.484 202.871 249.78C202.075 246.297 201.647 242.711 200.586 239.313C198.84 238.34 197.069 238.033 195.306 236.94C189.093 233.107 174.246 220.105 170.934 213.907C167.28 207.077 167.357 195.27 167.272 187.459C167.229 183.489 167.066 177.948 167.469 174.115C167.571 173.185 168.59 169.795 169.137 169.138C169.557 168.634 170.635 168.037 171.251 167.721C177.258 164.673 184.215 163.751 190.693 162.53C194.57 161.796 195.879 159.935 199.413 162.701L199.405 162.709ZM171.884 170.495C170.686 172.092 175.033 171.989 175.992 171.887C179.629 171.486 192.935 167.874 195.306 165.458C195.563 165.194 196.213 164.536 196.059 164.127C195.682 163.128 193.586 164.588 192.884 164.758C190.659 165.296 188.118 165.322 185.867 165.808C183.616 166.295 173.031 168.976 171.884 170.504V170.495ZM206.559 231.869C208.758 229 212.994 214.667 213.807 210.62C216.896 195.245 213.969 192.521 207.012 179.69C205.361 176.651 203.906 173.133 202.126 170.197C201.595 169.317 200.132 167.098 199.499 166.423C198.506 165.356 196.333 168.096 195.126 168.822C191.07 171.247 178.456 175.071 173.912 174.696C173.228 174.636 171.379 173.876 170.977 174.013C169.77 174.431 170.275 179.92 170.241 181.295C170.027 191.437 169.112 207.094 175.008 215.691C177.96 219.994 191.284 231.34 195.948 234.217C197.924 235.438 199.978 236.53 202.34 235.651C203.161 235.344 205.96 232.646 206.55 231.869H206.559ZM200.877 307.944C208.279 314.551 232.59 307.15 235.26 297.631C235.894 295.368 235.218 293.482 233.361 291.971C230.049 289.273 220.91 289.614 216.99 290.681C213.944 291.51 215.698 293.908 216.092 295.94C216.383 297.46 217.05 299.944 214.68 299.756C213.738 299.68 213.105 293.712 212.523 292.79C211.077 291.313 202.999 297.528 201.741 298.903C199.49 301.378 197.89 305.289 200.868 307.944H200.877Z" fill="#8400FF"/>
<path d="M192.465 227.762C187.279 224.382 181.982 219.763 177.832 215.162C175.667 212.754 174.306 210.27 176.437 207.171C177.592 205.489 182.119 203.38 184.113 202.834C186.243 202.245 188.571 202.271 190.676 201.724C194.869 200.623 199.499 198.369 203.778 197.319C205.831 196.815 211.83 195.603 212.754 198.267C212.985 198.924 213.251 200.853 213.251 201.579C213.251 202.714 212.018 207.914 211.65 209.305C210.512 213.642 205.866 227.498 202.888 230.119C199.619 232.996 195.34 229.641 192.465 227.762Z" fill="#8400FF"/>
<path d="M213.293 157.007C225.753 148.214 239.89 142.041 254.746 138.592C269.601 135.143 284.979 134.443 300.066 136.355C308.58 137.431 316.984 139.429 325.087 142.212C327.432 143.014 328.442 139.309 326.114 138.507C311.344 133.444 295.633 131.097 280.024 131.523C264.467 131.95 248.927 135.075 234.533 141.008C226.361 144.38 218.573 148.589 211.351 153.686C210.504 154.283 210.102 155.359 210.658 156.315C211.146 157.152 212.438 157.604 213.293 157.007Z" fill="#8400FF" stroke="#8400FF" stroke-width="2"/>
<path d="M323.282 140.803C320.449 164.46 318.567 188.219 317.497 212.012C316.427 235.805 316.162 259.709 316.547 283.57C316.77 297.016 317.197 310.462 317.805 323.9C317.916 326.359 321.767 326.376 321.656 323.9C320.569 300.09 320.064 276.254 320.27 252.427C320.475 228.6 321.408 204.73 323.213 180.945C324.232 167.542 325.524 154.156 327.124 140.812C327.244 139.779 326.148 138.891 325.199 138.891C324.052 138.891 323.393 139.779 323.273 140.812L323.282 140.803Z" fill="#8400FF" stroke="#8400FF" stroke-width="2"/>
<path d="M213.961 340.607C225.813 332.514 239.094 326.691 253.051 323.302C267.008 319.913 281.496 318.999 295.744 320.587C303.72 321.475 311.61 323.234 319.226 325.752C321.587 326.529 322.597 322.824 320.252 322.047C306.27 317.429 291.414 315.474 276.712 316.105C262.054 316.737 247.48 319.887 233.925 325.505C226.241 328.689 218.89 332.599 212.018 337.295C209.982 338.686 211.907 342.016 213.961 340.616V340.607Z" fill="#8400FF" stroke="#8400FF" stroke-width="2"/>
<path d="M213.687 153.993C202.571 142.818 188.785 134.4 173.792 129.5C158.055 124.352 140.915 123.182 124.63 126.196C115.14 127.955 105.984 131.242 97.4775 135.775C95.2953 136.944 97.2379 140.257 99.42 139.096C113.976 131.327 130.364 127.767 146.837 128.501C162.3 129.193 177.429 133.555 190.847 141.264C198.215 145.499 204.976 150.689 210.966 156.708C212.712 158.467 215.441 155.752 213.687 153.993Z" fill="#8400FF" stroke="#8400FF" stroke-width="2"/>
<path d="M95.6719 137.636C95.3125 161.779 94.953 185.922 94.5936 210.074C94.2342 234.217 93.8748 258.36 93.5154 282.512C93.31 296.146 93.1046 309.779 92.9078 323.413C92.8736 325.889 96.7244 325.889 96.7587 323.413C97.1181 299.27 97.4775 275.127 97.8369 250.975C98.1963 226.832 98.5557 202.689 98.9151 178.538C99.1205 164.904 99.3259 151.27 99.5227 137.636C99.5569 135.16 95.7061 135.16 95.6719 137.636Z" fill="#8400FF" stroke="#8400FF" stroke-width="2"/>
<path d="M95.8858 326.119C111.032 321.398 126.855 319.033 142.729 319.366C158.329 319.691 173.852 322.653 188.4 328.313C196.684 331.54 204.608 335.689 212.01 340.598C214.081 341.973 216.015 338.643 213.952 337.277C200.551 328.399 185.465 322.107 169.745 318.692C154.059 315.286 137.8 314.628 121.875 316.592C112.71 317.727 103.673 319.657 94.8504 322.406C92.4971 323.14 93.4983 326.853 95.8773 326.111L95.8858 326.119Z" fill="#8400FF" stroke="#8400FF" stroke-width="2"/>
<path d="M96.9469 159.44H85.8565C84.8467 159.44 83.8883 160.319 83.9311 161.361C83.9739 162.402 84.7783 163.282 85.8565 163.282H96.9469C97.9567 163.282 98.9151 162.402 98.8723 161.361C98.8295 160.319 98.0251 159.44 96.9469 159.44Z" fill="#8400FF" stroke="#8400FF" stroke-width="2"/>
<path d="M83.1352 161.395C82.0827 184.761 81.0301 208.128 79.9775 231.485C78.9335 254.775 77.881 278.072 76.837 301.362C76.2465 314.501 75.6561 327.639 75.0656 340.778C74.9544 343.254 78.8052 343.245 78.9164 340.778C79.969 317.412 81.0216 294.045 82.0741 270.688C83.1181 247.398 84.1707 224.101 85.2147 200.811C85.8051 187.673 86.3956 174.534 86.9861 161.395C87.0973 158.919 83.2465 158.928 83.1352 161.395Z" fill="#8400FF" stroke="#8400FF" stroke-width="2"/>
<path d="M76.991 342.698C94.2427 342.733 111.486 342.733 128.738 342.69C145.955 342.639 163.173 342.536 180.39 342.331C197.668 342.126 214.936 341.836 232.205 341.409C249.474 340.982 266.615 340.436 283.806 339.727C301.033 339.019 318.25 338.14 335.45 337.072C337.581 336.936 339.703 336.808 341.834 336.663C344.299 336.5 344.316 332.659 341.834 332.821C324.625 333.939 307.408 334.861 290.182 335.613C272.99 336.364 255.781 336.953 238.581 337.405C221.312 337.858 204.043 338.182 186.765 338.404C169.548 338.626 152.339 338.754 135.121 338.823C117.878 338.891 100.635 338.891 83.3919 338.865C81.2611 338.865 79.1303 338.865 76.9995 338.857C74.5179 338.857 74.5179 342.69 76.9995 342.698H76.991Z" fill="#8400FF" stroke="#8400FF" stroke-width="2"/>
<path d="M345.309 334.742C344.735 312.067 343.999 289.401 343.212 266.735C342.425 244.103 341.603 221.479 340.884 198.847C340.474 186.084 340.106 173.321 339.78 160.558C339.721 158.091 335.87 158.082 335.93 160.558C336.503 183.233 337.239 205.899 338.026 228.565C338.814 251.231 339.635 273.821 340.354 296.453C340.765 309.216 341.133 321.979 341.458 334.742C341.518 337.209 345.368 337.218 345.309 334.742Z" fill="#8400FF" stroke="#8400FF" stroke-width="2"/>
<path d="M337.855 158.646H325.173C324.163 158.646 323.205 159.525 323.248 160.567C323.29 161.608 324.095 162.488 325.173 162.488H337.855C338.865 162.488 339.823 161.608 339.781 160.567C339.738 159.525 338.933 158.646 337.855 158.646Z" fill="#8400FF" stroke="#8400FF" stroke-width="2"/>
</svg>
